<svg height="70" viewBox="0 0 70 70" width="70" xmlns="http://www.w3.org/2000/svg"><path d="m421.98 421c-1.09 0-1.98.89-1.98 1.98v66.04c0 1.09.89 1.98 1.98 1.98h66.04c1.09 0 1.98-.89 1.98-1.98v-66.04c0-1.09-.89-1.98-1.98-1.98zm63.02 63.02c0 1.09-.89 1.98-1.98 1.98h-56.04c-1.09 0-1.98-.89-1.98-1.98v-56.04c0-1.09.89-1.98 1.98-1.98h56.04c1.09 0 1.98.89 1.98 1.98zm-41-32.08c0-1.07-.91-1.94-2.02-1.94h-7.96c-1.11 0-2.02.87-2.02 1.94v24.12c0 1.07.91 1.94 2.02 1.94h7.96c1.11 0 2.02-.87 2.02-1.94zm7 24.09c0 1.08.89 1.97 1.98 1.97h23.04c1.09 0 1.98-.89 1.98-1.97v-24.06c0-1.08-.89-1.97-1.98-1.97h-23.04c-1.09 0-1.98.89-1.98 1.97zm27-42.1c0-1.06-.9-1.93-1.99-1.93h-42.02c-1.09 0-1.99.87-1.99 1.93v7.14c0 1.06.9 1.93 1.99 1.93h42.02c1.09 0 1.99-.87 1.99-1.93z" fill="#fff" fill-rule="evenodd" transform="translate(-420 -421)"/></svg>