<svg height="55" viewBox="0 0 71 55" width="71" xmlns="http://www.w3.org/2000/svg"><g fill="#fff" fill-rule="evenodd"><path d="m2.01 0c-1.11 0-2.01.91-2.01 2.01v50.98c0 1.11.9 2.01 2.01 2.01h66.98c1.11 0 2.01-.9 2.01-2.01v-50.98c0-1.1-.9-2.01-2.01-2.01zm63.99 47.97c0 1.11-.91 2.01-2.01 2.01h-56.98c-1.1 0-2.01-.9-2.01-2.01v-40.94c0-1.11.91-2.02 2.01-2.02h56.98c1.1 0 2.01.91 2.01 2.02z"/><path d="m36.37 35.68c-.55.97-1.62 1.09-2.38.28l-12.95-13.9c-.75-.8-1.8-.67-2.32.31l-8.77 16.36c-.52.98-.95 2.69-.95 3.8v1.45c0 1.11.9 2.02 2.01 2.02h48.99c1.11 0 1.33-.6.5-1.33l-17.97-15.79c-.83-.73-1.96-.54-2.51.43zm17.42-10.92c2.95 0 5.33-2.41 5.33-5.38s-2.38-5.38-5.33-5.38c-2.93 0-5.32 2.41-5.32 5.38s2.39 5.38 5.32 5.38z"/></g></svg>