<svg baseProfile="tiny" xmlns="http://www.w3.org/2000/svg" width="50" height="50" viewBox="175 175 50 50"><path d="M186.5 204.2h-7.3c-2.3 0-4.2-1.9-4.2-4.2s1.9-4.2 4.2-4.2h7.3c2.3 0 4.2 1.9 4.2 4.2s-1.9 4.2-4.2 4.2z" fill="none"/><path fill="#fff" fill-opacity=".1" d="M187.5 193.4l-5.2-5.2c-1.6-1.6-1.6-4.2 0-5.8 1.7-1.7 4.3-1.7 5.9 0l5.1 5.1c1.7 1.6 1.7 4.2 0 5.9-1.6 1.6-4.2 1.6-5.8 0z"/><path fill="#fff" fill-opacity=".3" d="M188.2 217.7c-1.6 1.6-4.2 1.6-5.9 0-1.6-1.7-1.6-4.3 0-5.9l5.2-5.1c1.6-1.7 4.2-1.7 5.9 0 1.7 1.6 1.7 4.2 0 5.8l-5.2 5.2z"/><path fill="#fff" fill-opacity=".5" d="M204.2 186.5c0 2.3-1.9 4.2-4.2 4.2s-4.2-1.9-4.2-4.2v-7.3c0-2.3 1.9-4.2 4.2-4.2s4.2 1.9 4.2 4.2v7.3z"/><path fill="#fff" fill-opacity=".7" d="M204.2 220.8c0 2.3-1.9 4.2-4.2 4.2s-4.2-1.8-4.2-4.2v-7.3c0-2.3 1.9-4.2 4.2-4.2s4.2 1.8 4.2 4.2v7.3z"/><path fill="#fff" fill-opacity=".8" d="M212.5 193.4c-1.6 1.7-4.2 1.7-5.9 0-1.7-1.6-1.7-4.2 0-5.9l5.2-5.1c1.6-1.7 4.2-1.7 5.8 0 1.7 1.6 1.7 4.2 0 5.8l-5.1 5.2z"/><path fill="#fff" fill-opacity=".9" d="M211.8 217.7l-5.2-5.2c-1.7-1.6-1.7-4.2 0-5.9 1.6-1.7 4.2-1.7 5.9 0l5.2 5.2c1.7 1.6 1.7 4.2 0 5.9-1.7 1.6-4.3 1.6-5.9 0z"/><path fill="#fff" d="M220.8 204.2h-7.3c-2.3 0-4.2-1.9-4.2-4.2s1.8-4.2 4.2-4.2h7.3c2.3 0 4.2 1.9 4.2 4.2s-1.8 4.2-4.2 4.2z"/></svg>